<svg width="362px" height="245px" viewBox="0 0 362 245" version="1.1" xmlns="http://www.w3.org/2000/svg" xmlns:xlink="http://www.w3.org/1999/xlink">
  <path d="M14.7949219,245 L0.68359375,245 L22.7539062,178.349609 L39.5019531,178.349609 L61.4746094,245 L46.3867187,245 L41.4550781,228.447266 L19.7753906,228.447266 L14.7949219,245 Z M31.0058594,191.630859 L30.3710938,191.630859 L22.5585938,218.046875 L38.7207031,218.046875 L31.0058594,191.630859 Z M102.333124,245 L88.1729679,245 L88.1729679,178.349609 L131.288202,178.349609 L131.288202,189.873047 L102.333124,189.873047 L102.333124,207.646484 L128.74914,207.646484 L128.74914,218.925781 L102.333124,218.925781 L102.333124,245 Z M189.920155,245 L175.808826,245 L175.808826,190.068359 L157.107655,190.068359 L157.107655,178.349609 L208.621326,178.349609 L208.621326,190.068359 L189.920155,190.068359 L189.920155,245 Z M278.825544,233.574219 L278.825544,245 L235.319685,245 L235.319685,178.349609 L278.825544,178.349609 L278.825544,189.775391 L249.333357,189.775391 L249.333357,205.986328 L277.067732,205.986328 L277.067732,216.630859 L249.333357,216.630859 L249.333357,233.574219 L278.825544,233.574219 Z M336.920387,178.349609 C352.936012,178.349609 360.650856,187.626953 360.650856,199.638672 C360.650856,210.625 353.473122,216.435547 348.590309,218.388672 L361.969215,245 L346.246559,245 L334.674294,220.488281 L323.687965,220.488281 L323.687965,245 L309.77195,245 L309.77195,178.349609 L336.920387,178.349609 Z M323.687965,210.087891 L334.674294,210.087891 C341.705544,210.087891 346.100075,206.572266 346.100075,199.882812 C346.100075,192.802734 341.314919,189.238281 334.869606,189.238281 L323.687965,189.238281 L323.687965,210.087891 Z" id="AFTER" fill="#0C2F74"></path>
  <polygon id="Shape" fill="#BAD1FF" fill-rule="nonzero" points="274 52.9412417 220.817442 0 209 11.7597676 250.426178 53 209 94.2361801 220.817442 106 274 53.0587583 273.940974 53"></polygon>
  <polygon id="Shape" fill="#04369B" fill-rule="nonzero" points="225.940974 53 226 52.9412417 172.819477 0 161 11.7597676 202.424143 53 161 94.2382063 172.819477 106 226 53.0587583"></polygon>
  <polygon id="Shape" fill="#E60909" fill-rule="nonzero" points="123.819847 0 112 11.7597676 153.42544 53 112 94.2382063 123.819847 106 177 53.0587583"></polygon>
</svg>